<?xml version="1.0" standalone="no"?>
<!DOCTYPE svg PUBLIC "-//W3C//DTD SVG 20010904//EN"
 "http://www.w3.org/TR/2001/REC-SVG-20010904/DTD/svg10.dtd">
<svg version="1.0" xmlns="http://www.w3.org/2000/svg"
 width="700.000000pt" height="700.000000pt" viewBox="0 0 700.000000 700.000000"
 preserveAspectRatio="xMidYMid meet">
<metadata>
Created by potrace 1.11, written by Peter Selinger 2001-2013
</metadata>
<g transform="translate(0.000000,700.000000) scale(0.100000,-0.100000)"
fill="#000000" stroke="none">
<path d="M3294 6990 c-1068 -64 -2045 -609 -2660 -1486 -597 -852 -782 -1943
-500 -2951 215 -770 702 -1456 1362 -1919 771 -541 1750 -749 2674 -569 706
138 1327 475 1835 996 233 239 419 491 573 774 387 712 512 1569 347 2370
-282 1367 -1353 2438 -2720 2720 -167 34 -312 52 -513 65 -181 11 -215 11
-398 0z m-2019 -1689 c50 -23 93 -65 112 -110 20 -47 19 -130 -1 -169 -9 -18
-14 -37 -11 -41 3 -5 84 -67 179 -137 l175 -127 -39 -28 c-40 -29 -69 -73 -79
-121 -6 -27 -7 -26 -183 102 -98 72 -180 130 -182 130 -2 0 -27 -15 -55 -34
-94 -64 -200 -55 -273 22 -63 66 -78 123 -54 207 13 42 27 63 67 99 33 29 54
58 61 82 5 20 26 54 46 76 62 65 158 85 237 49z m2700 -2571 c7 0 28 -12 45
-27 18 -15 35 -22 38 -17 31 45 112 57 156 23 72 -57 71 -141 -4 -192 -24 -17
-22 -17 69 -17 l93 0 -30 29 c-49 49 -51 120 -4 166 64 64 162 43 198 -42 18
-43 8 -87 -28 -124 l-30 -29 694 0 693 0 50 -24 c90 -42 135 -112 135 -208 0
-30 -9 -71 -19 -94 -23 -49 -88 -107 -140 -122 -61 -19 -4622 -16 -4674 2 -59
22 -107 64 -133 120 -29 63 -30 126 -3 186 25 56 53 86 104 113 l40 22 1335 5
c1252 5 1333 6 1309 22 -34 22 -53 69 -45 112 11 58 79 112 124 100 8 -2 20
-4 27 -4z"/>
<path d="M4017 2525 l-28 -25 57 0 57 0 -27 25 c-15 14 -28 25 -29 25 -1 0
-15 -12 -30 -25z"/>
</g>
</svg>
